<?xml version="1.0" encoding="UTF-8"?><svg id="uuid-efa6eacc-ad3f-4bef-bd66-6bccf575c809" xmlns="http://www.w3.org/2000/svg" viewBox="0 0 900 299"><rect width="900" height="299" rx="50" ry="50" style="fill:#fc0;"/><path d="M100,178.9299h94.6636l-5.1705,7.0369h-89.4931v-7.0369h0ZM100,165.8738v7.0272h99.1009l5.1799-7.0272h-104.2809ZM100,191.9957v6.9887h79.9047l5.1476-6.9887h-85.0523ZM800,185.9668v-7.0321h-89.1266l-5.1678,7.0321h94.2944ZM800,198.9844v-6.9887h-98.7367l-5.1461,6.9983,103.8828-.0096h0ZM720.4835,165.8738l-5.1727,7.0369,84.6893-.0049v-7.0319h-79.5165ZM191.6877,198.9844h109.5393c36.1736,0,56.3186-24.6026,62.5295-33.1105h-74.6789c-9.4715,0-6.6124-3.8923-5.0317-6.0289,3.1145-4.2057,8.3186-11.3295,11.3765-15.4724,3.011-4.0805,3.0917-6.4198-3.0698-6.4198h-55.7435l-44.9214,61.0315h0ZM448.9485,165.8689l-64.2475.0049c-.0217,0-24.369,33.1105-24.369,33.1105h64.2586l24.3578-33.1154h0ZM541.8709,165.8738h-64.2344c-.0217,0-24.3712,33.1105-24.3712,33.1105h64.2344l24.3712-33.1105h0ZM562.7673,165.8738c.0022,0-4.6929,6.4195-6.9744,9.5015-8.0689,10.905-.9379,23.609,25.3962,23.609h103.1619l24.3665-33.1105h-145.9502ZM223.102,100l-22.3648,30.3855h121.8887c6.1605,0,6.0798,2.3393,3.0688,6.4195-3.0579,4.1383-8.1763,11.344-11.2908,15.5497-1.5809,2.1319-4.4398,6.0239,5.0317,6.0239h49.8445s8.0341-10.9339,14.7685-20.0737c9.1626-12.4338.7947-38.305-31.9593-38.305h-128.9874ZM547.3886,158.3787l42.9646-58.3787h-64.2272l-24.6487,33.4723h-28.671l24.6292-33.4723h-64.2369l-42.9777,58.3787h157.1677ZM679.3159,100h-68.0329c-.0215,0-43.0053,58.3787-43.0053,58.3787h68.0689l42.9693-58.3787h0Z" style="fill:#d40511;"/></svg>